<svg xmlns="http://www.w3.org/2000/svg" viewBox="0 0 1000 800" width="100%" height="100%" preserveAspectRatio="none">
  <defs>
    <pattern id="grid" width="45" height="45" patternUnits="userSpaceOnUse">
      <path d="M45 0 L0 0 0 45" stroke="#FFFFFF12" fill="none"/>
    </pattern>

    <pattern id="mesh" width="90" height="90" patternUnits="userSpaceOnUse">
      <path d="M0 0 L90 0 L90 90 L0 90 Z" fill="none" stroke="#FFFFFF18" stroke-width="0.8"/>
      <path d="M0 45 L90 45" stroke="#FFFFFF10"/>
      <path d="M45 0 L45 90" stroke="#FFFFFF10"/>
      <circle cx="45" cy="45" r="1" fill="#FFFFFF15"/>
    </pattern>

    <filter id="noise">
      <feTurbulence type="fractalNoise" baseFrequency="0.7" numOctaves="2"/>
      <feColorMatrix type="matrix"
        values="0 0 0 0 0
                0 0 0 0 0
                0 0 0 0 0
                0 0 0 .025 0"/>
    </filter>

    <style>
      @keyframes twinkle1 { 0%, 100% { opacity: 0.3; } 50% { opacity: 0.9; } }
      @keyframes twinkle2 { 0%, 100% { opacity: 0.8; } 50% { opacity: 0.2; } }
      @keyframes twinkle3 { 0%, 100% { opacity: 0.4; } 30% { opacity: 0.9; } 70% { opacity: 0.15; } }
      @keyframes pulseGlow { 0%, 100% { opacity: 0.15; } 50% { opacity: 0.35; } }
      
      .star1 { animation: twinkle1 3.5s infinite ease-in-out; }
      .star2 { animation: twinkle2 4.2s infinite ease-in-out; }
      .star3 { animation: twinkle3 2.8s infinite ease-in-out; }
      .constellation-line { animation: pulseGlow 4s ease-in-out infinite; }
      .constellation-line:nth-child(1) { animation-delay: 0s; }
      .constellation-line:nth-child(2) { animation-delay: 0.8s; }
      .constellation-line:nth-child(3) { animation-delay: 1.6s; }
      .constellation-line:nth-child(4) { animation-delay: 2.4s; }
      .constellation-line:nth-child(5) { animation-delay: 3.2s; }
      .constellation-line:nth-child(6) { animation-delay: 0.4s; }
      .constellation-line:nth-child(7) { animation-delay: 1.2s; }
      .constellation-line:nth-child(8) { animation-delay: 2.0s; }
      .constellation-line:nth-child(9) { animation-delay: 2.8s; }
    </style>
  </defs>

  <!-- Dark background -->
  <rect width="100%" height="100%" fill="#0a0a0f"/>
  <rect width="100%" height="100%" fill="url(#mesh)" opacity="0.45"/>
  <rect width="100%" height="100%" fill="url(#grid)" opacity="0.5"/>
  <rect width="100%" height="100%" filter="url(#noise)" opacity="0.3"/>

  <!-- ==================== CONSTELLATION 1: Top Left ==================== -->
  <!-- Stars -->
  <circle class="star1" cx="80" cy="50" r="1.8" fill="#FFFFFF" opacity="0.7"/>
  <circle class="star2" cx="200" cy="30" r="1.3" fill="#FFFFFF" opacity="0.5"/>
  <circle class="star3" cx="150" cy="120" r="1.5" fill="#FFFFFF" opacity="0.6"/>
  <circle class="star1" cx="280" cy="80" r="1.6" fill="#FFFFFF" opacity="0.7"/>
  <circle class="star2" cx="350" cy="40" r="1.2" fill="#FFFFFF" opacity="0.4"/>
  <circle class="star3" cx="100" cy="180" r="1.4" fill="#FFFFFF" opacity="0.5"/>
  
  <!-- Connections -->
  <line x1="80" y1="50" x2="200" y2="30" stroke="#D6DCE2" stroke-width="0.6" class="constellation-line"/>
  <line x1="80" y1="50" x2="150" y2="120" stroke="#D6DCE2" stroke-width="0.6" class="constellation-line"/>
  <line x1="200" y1="30" x2="280" y2="80" stroke="#D6DCE2" stroke-width="0.6" class="constellation-line"/>
  <line x1="150" y1="120" x2="280" y2="80" stroke="#D6DCE2" stroke-width="0.6" class="constellation-line"/>
  <line x1="150" y1="120" x2="100" y2="180" stroke="#D6DCE2" stroke-width="0.6" class="constellation-line"/>
  <line x1="280" y1="80" x2="350" y2="40" stroke="#D6DCE2" stroke-width="0.6" class="constellation-line"/>

  <!-- ==================== CONSTELLATION 2: Top Right ==================== -->
  <!-- Stars -->
  <circle class="star2" cx="800" cy="45" r="1.7" fill="#FFFFFF" opacity="0.6"/>
  <circle class="star3" cx="900" cy="70" r="1.9" fill="#FFFFFF" opacity="0.7"/>
  <circle class="star1" cx="850" cy="130" r="1.4" fill="#FFFFFF" opacity="0.5"/>
  <circle class="star2" cx="950" cy="150" r="1.6" fill="#FFFFFF" opacity="0.6"/>
  <circle class="star3" cx="720" cy="100" r="1.3" fill="#FFFFFF" opacity="0.4"/>
  
  <!-- Connections -->
  <line x1="800" y1="45" x2="900" y2="70" stroke="#D6DCE2" stroke-width="0.6" class="constellation-line"/>
  <line x1="800" y1="45" x2="850" y2="130" stroke="#D6DCE2" stroke-width="0.6" class="constellation-line"/>
  <line x1="900" y1="70" x2="950" y2="150" stroke="#D6DCE2" stroke-width="0.6" class="constellation-line"/>
  <line x1="850" y1="130" x2="950" y2="150" stroke="#D6DCE2" stroke-width="0.6" class="constellation-line"/>
  <line x1="800" y1="45" x2="720" y2="100" stroke="#D6DCE2" stroke-width="0.6" class="constellation-line"/>
  <line x1="720" y1="100" x2="850" y2="130" stroke="#D6DCE2" stroke-width="0.6" class="constellation-line"/>

  <!-- ==================== CONSTELLATION 3: Center ==================== -->
  <!-- Stars -->
  <circle class="star1" cx="450" cy="180" r="1.5" fill="#FFFFFF" opacity="0.6"/>
  <circle class="star2" cx="550" cy="200" r="1.7" fill="#FFFFFF" opacity="0.7"/>
  <circle class="star3" cx="480" cy="280" r="1.4" fill="#FFFFFF" opacity="0.5"/>
  <circle class="star1" cx="600" cy="300" r="1.6" fill="#FFFFFF" opacity="0.6"/>
  <circle class="star2" cx="400" cy="350" r="1.3" fill="#FFFFFF" opacity="0.4"/>
  <circle class="star3" cx="520" cy="380" r="1.8" fill="#FFFFFF" opacity="0.7"/>
  
  <!-- Connections -->
  <line x1="450" y1="180" x2="550" y2="200" stroke="#D6DCE2" stroke-width="0.6" class="constellation-line"/>
  <line x1="450" y1="180" x2="480" y2="280" stroke="#D6DCE2" stroke-width="0.6" class="constellation-line"/>
  <line x1="550" y1="200" x2="600" y2="300" stroke="#D6DCE2" stroke-width="0.6" class="constellation-line"/>
  <line x1="480" y1="280" x2="600" y2="300" stroke="#D6DCE2" stroke-width="0.6" class="constellation-line"/>
  <line x1="480" y1="280" x2="400" y2="350" stroke="#D6DCE2" stroke-width="0.6" class="constellation-line"/>
  <line x1="600" y1="300" x2="520" y2="380" stroke="#D6DCE2" stroke-width="0.6" class="constellation-line"/>
  <line x1="400" y1="350" x2="520" y2="380" stroke="#D6DCE2" stroke-width="0.6" class="constellation-line"/>

  <!-- ==================== CONSTELLATION 4: Bottom Left ==================== -->
  <!-- Stars -->
  <circle class="star2" cx="120" cy="500" r="1.6" fill="#FFFFFF" opacity="0.6"/>
  <circle class="star3" cx="200" cy="550" r="1.8" fill="#FFFFFF" opacity="0.7"/>
  <circle class="star1" cx="80" cy="620" r="1.4" fill="#FFFFFF" opacity="0.5"/>
  <circle class="star2" cx="250" cy="650" r="1.5" fill="#FFFFFF" opacity="0.6"/>
  <circle class="star3" cx="180" cy="720" r="1.7" fill="#FFFFFF" opacity="0.7"/>
  
  <!-- Connections -->
  <line x1="120" y1="500" x2="200" y2="550" stroke="#D6DCE2" stroke-width="0.6" class="constellation-line"/>
  <line x1="120" y1="500" x2="80" y2="620" stroke="#D6DCE2" stroke-width="0.6" class="constellation-line"/>
  <line x1="200" y1="550" x2="250" y2="650" stroke="#D6DCE2" stroke-width="0.6" class="constellation-line"/>
  <line x1="80" y1="620" x2="250" y2="650" stroke="#D6DCE2" stroke-width="0.6" class="constellation-line"/>
  <line x1="250" y1="650" x2="180" y2="720" stroke="#D6DCE2" stroke-width="0.6" class="constellation-line"/>
  <line x1="80" y1="620" x2="180" y2="720" stroke="#D6DCE2" stroke-width="0.6" class="constellation-line"/>

  <!-- ==================== CONSTELLATION 5: Bottom Right ==================== -->
  <!-- Stars -->
  <circle class="star1" cx="750" cy="480" r="1.7" fill="#FFFFFF" opacity="0.7"/>
  <circle class="star2" cx="850" cy="520" r="1.5" fill="#FFFFFF" opacity="0.5"/>
  <circle class="star3" cx="780" cy="580" r="1.8" fill="#FFFFFF" opacity="0.6"/>
  <circle class="star1" cx="920" cy="620" r="1.4" fill="#FFFFFF" opacity="0.5"/>
  <circle class="star2" cx="820" cy="680" r="1.6" fill="#FFFFFF" opacity="0.6"/>
  <circle class="star3" cx="700" cy="650" r="1.3" fill="#FFFFFF" opacity="0.4"/>
  
  <!-- Connections -->
  <line x1="750" y1="480" x2="850" y2="520" stroke="#D6DCE2" stroke-width="0.6" class="constellation-line"/>
  <line x1="750" y1="480" x2="780" y2="580" stroke="#D6DCE2" stroke-width="0.6" class="constellation-line"/>
  <line x1="850" y1="520" x2="920" y2="620" stroke="#D6DCE2" stroke-width="0.6" class="constellation-line"/>
  <line x1="780" y1="580" x2="920" y2="620" stroke="#D6DCE2" stroke-width="0.6" class="constellation-line"/>
  <line x1="780" y1="580" x2="820" y2="680" stroke="#D6DCE2" stroke-width="0.6" class="constellation-line"/>
  <line x1="920" y1="620" x2="820" y2="680" stroke="#D6DCE2" stroke-width="0.6" class="constellation-line"/>
  <line x1="820" y1="680" x2="700" y2="650" stroke="#D6DCE2" stroke-width="0.6" class="constellation-line"/>
  <line x1="700" y1="650" x2="780" y2="580" stroke="#D6DCE2" stroke-width="0.6" class="constellation-line"/>

  <!-- ==================== SCATTERED SOLO STARS ==================== -->
  <circle class="star1" cx="50" cy="300" r="1.2" fill="#FFFFFF" opacity="0.4"/>
  <circle class="star2" cx="680" cy="250" r="1" fill="#FFFFFF" opacity="0.3"/>
  <circle class="star3" cx="350" cy="500" r="1.3" fill="#FFFFFF" opacity="0.5"/>
  <circle class="star1" cx="650" cy="750" r="1.1" fill="#FFFFFF" opacity="0.4"/>
  <circle class="star2" cx="430" cy="680" r="1.4" fill="#FFFFFF" opacity="0.5"/>
  <circle class="star3" cx="550" cy="100" r="1" fill="#FFFFFF" opacity="0.3"/>
  <circle class="star1" cx="300" cy="750" r="1.2" fill="#FFFFFF" opacity="0.4"/>
  <circle class="star2" cx="950" cy="380" r="1.1" fill="#FFFFFF" opacity="0.3"/>
  <circle class="star3" cx="60" cy="750" r="0.9" fill="#FFFFFF" opacity="0.3"/>
  <circle class="star1" cx="480" cy="500" r="1.3" fill="#FFFFFF" opacity="0.4"/>
  <circle class="star2" cx="150" cy="420" r="1" fill="#FFFFFF" opacity="0.3"/>
  <circle class="star3" cx="880" cy="300" r="1.2" fill="#FFFFFF" opacity="0.4"/>
  <circle class="star1" cx="360" cy="130" r="0.9" fill="#FFFFFF" opacity="0.3"/>
  <circle class="star2" cx="620" cy="450" r="1.1" fill="#FFFFFF" opacity="0.4"/>
  <circle class="star3" cx="730" cy="350" r="1" fill="#FFFFFF" opacity="0.3"/>

  <!-- ==================== ZODIAC STYLE GLOWING NODES ==================== -->
  <!-- Bright central stars with subtle glow -->
  <circle cx="80" cy="50" r="2.5" fill="#FFFFFF" opacity="0.15"/>
  <circle cx="800" cy="45" r="2.5" fill="#FFFFFF" opacity="0.15"/>
  <circle cx="450" cy="180" r="2.5" fill="#FFFFFF" opacity="0.15"/>
  <circle cx="120" cy="500" r="2.5" fill="#FFFFFF" opacity="0.15"/>
  <circle cx="750" cy="480" r="2.5" fill="#FFFFFF" opacity="0.15"/>
</svg>