<svg xmlns="http://www.w3.org/2000/svg" viewBox="0 0 1000 800" width="100%" height="100%" preserveAspectRatio="none">
  <defs>
    <pattern id="grid" width="45" height="45" patternUnits="userSpaceOnUse">
      <path d="M45 0 L0 0 0 45" stroke="#FFFFFF12" fill="none"/>
    </pattern>

    <pattern id="mesh" width="90" height="90" patternUnits="userSpaceOnUse">
      <path d="M0 0 L90 0 L90 90 L0 90 Z" fill="none" stroke="#FFFFFF18" stroke-width="0.8"/>
      <path d="M0 45 L90 45" stroke="#FFFFFF10"/>
      <path d="M45 0 L45 90" stroke="#FFFFFF10"/>
      <circle cx="45" cy="45" r="1" fill="#FFFFFF15"/>
    </pattern>

    <filter id="noise">
      <feTurbulence type="fractalNoise" baseFrequency="0.7" numOctaves="2"/>
      <feColorMatrix type="matrix"
        values="0 0 0 0 0
                0 0 0 0 0
                0 0 0 0 0
                0 0 0 .025 0"/>
    </filter>

    <style>
      @keyframes twinkle1 { 0%, 100% { opacity: 0.3; } 50% { opacity: 0.9; } }
      @keyframes twinkle2 { 0%, 100% { opacity: 0.8; } 50% { opacity: 0.2; } }
      @keyframes twinkle3 { 0%, 100% { opacity: 0.4; } 30% { opacity: 0.9; } 70% { opacity: 0.15; } }
      @keyframes pulseGlow { 0%, 100% { opacity: 0.08; } 50% { opacity: 0.25; } }
      
      .star1 { animation: twinkle1 3.5s infinite ease-in-out; }
      .star2 { animation: twinkle2 4.2s infinite ease-in-out; }
      .star3 { animation: twinkle3 2.8s infinite ease-in-out; }
      .constellation-line { animation: pulseGlow 4s ease-in-out infinite; }
    </style>
  </defs>

  <!-- Dark background -->
  <rect width="100%" height="100%" fill="#0a0a0f"/>
  <rect width="100%" height="100%" fill="url(#mesh)" opacity="0.45"/>
  <rect width="100%" height="100%" fill="url(#grid)" opacity="0.5"/>
  <rect width="100%" height="100%" filter="url(#noise)" opacity="0.3"/>

  <!-- ==================== CLUSTER 1: Top Left ==================== -->
  <circle class="star1" cx="60" cy="40" r="2.0" fill="#FFFFFF" opacity="0.8"/>
  <circle class="star2" cx="180" cy="70" r="1.5" fill="#FFFFFF" opacity="0.5"/>
  <circle class="star3" cx="130" cy="140" r="1.8" fill="#FFFFFF" opacity="0.7"/>
  <circle class="star1" cx="250" cy="100" r="1.6" fill="#FFFFFF" opacity="0.6"/>
  <circle class="star2" cx="80" cy="190" r="1.4" fill="#FFFFFF" opacity="0.5"/>
  
  <line x1="60" y1="40" x2="180" y2="70" stroke="#D6DCE2" stroke-width="0.5" class="constellation-line"/>
  <line x1="60" y1="40" x2="130" y2="140" stroke="#D6DCE2" stroke-width="0.5" class="constellation-line"/>
  <line x1="180" y1="70" x2="250" y2="100" stroke="#D6DCE2" stroke-width="0.5" class="constellation-line"/>
  <line x1="130" y1="140" x2="80" y2="190" stroke="#D6DCE2" stroke-width="0.5" class="constellation-line"/>
  <line x1="130" y1="140" x2="250" y2="100" stroke="#D6DCE2" stroke-width="0.5" class="constellation-line"/>
  <line x1="180" y1="70" x2="80" y2="190" stroke="#D6DCE2" stroke-width="0.4" class="constellation-line"/>

  <!-- ==================== CLUSTER 2: Top Right ==================== -->
  <circle class="star1" cx="800" cy="45" r="1.8" fill="#FFFFFF" opacity="0.7"/>
  <circle class="star2" cx="920" cy="70" r="1.6" fill="#FFFFFF" opacity="0.6"/>
  <circle class="star3" cx="950" cy="150" r="2.0" fill="#FFFFFF" opacity="0.8"/>
  <circle class="star1" cx="860" cy="160" r="1.5" fill="#FFFFFF" opacity="0.5"/>
  <circle class="star2" cx="750" cy="120" r="1.4" fill="#FFFFFF" opacity="0.5"/>
  
  <line x1="800" y1="45" x2="920" y2="70" stroke="#D6DCE2" stroke-width="0.5" class="constellation-line"/>
  <line x1="800" y1="45" x2="860" y2="160" stroke="#D6DCE2" stroke-width="0.5" class="constellation-line"/>
  <line x1="920" y1="70" x2="950" y2="150" stroke="#D6DCE2" stroke-width="0.5" class="constellation-line"/>
  <line x1="920" y1="70" x2="750" y2="120" stroke="#D6DCE2" stroke-width="0.5" class="constellation-line"/>
  <line x1="860" y1="160" x2="950" y2="150" stroke="#D6DCE2" stroke-width="0.5" class="constellation-line"/>
  <line x1="950" y1="150" x2="750" y2="120" stroke="#D6DCE2" stroke-width="0.4" class="constellation-line"/>

  <!-- ==================== CLUSTER 3: Mid Left ==================== -->
  <circle class="star1" cx="100" cy="350" r="1.9" fill="#FFFFFF" opacity="0.8"/>
  <circle class="star2" cx="220" cy="380" r="1.5" fill="#FFFFFF" opacity="0.5"/>
  <circle class="star3" cx="170" cy="460" r="1.7" fill="#FFFFFF" opacity="0.6"/>
  <circle class="star1" cx="290" cy="420" r="1.6" fill="#FFFFFF" opacity="0.6"/>
  <circle class="star2" cx="60" cy="480" r="1.4" fill="#FFFFFF" opacity="0.5"/>
  
  <line x1="100" y1="350" x2="220" y2="380" stroke="#D6DCE2" stroke-width="0.5" class="constellation-line"/>
  <line x1="100" y1="350" x2="170" y2="460" stroke="#D6DCE2" stroke-width="0.5" class="constellation-line"/>
  <line x1="220" y1="380" x2="290" y2="420" stroke="#D6DCE2" stroke-width="0.5" class="constellation-line"/>
  <line x1="170" y1="460" x2="60" y2="480" stroke="#D6DCE2" stroke-width="0.5" class="constellation-line"/>
  <line x1="220" y1="380" x2="170" y2="460" stroke="#D6DCE2" stroke-width="0.4" class="constellation-line"/>
  <line x1="290" y1="420" x2="60" y2="480" stroke="#D6DCE2" stroke-width="0.4" class="constellation-line"/>

  <!-- ==================== CLUSTER 4: Mid Right ==================== -->
  <circle class="star1" cx="700" cy="300" r="1.6" fill="#FFFFFF" opacity="0.6"/>
  <circle class="star2" cx="820" cy="330" r="1.8" fill="#FFFFFF" opacity="0.7"/>
  <circle class="star3" cx="760" cy="410" r="1.5" fill="#FFFFFF" opacity="0.5"/>
  <circle class="star1" cx="890" cy="380" r="1.7" fill="#FFFFFF" opacity="0.6"/>
  <circle class="star2" cx="640" cy="400" r="1.4" fill="#FFFFFF" opacity="0.5"/>
  
  <line x1="700" y1="300" x2="820" y2="330" stroke="#D6DCE2" stroke-width="0.5" class="constellation-line"/>
  <line x1="700" y1="300" x2="760" y2="410" stroke="#D6DCE2" stroke-width="0.5" class="constellation-line"/>
  <line x1="820" y1="330" x2="890" y2="380" stroke="#D6DCE2" stroke-width="0.5" class="constellation-line"/>
  <line x1="760" y1="410" x2="640" y2="400" stroke="#D6DCE2" stroke-width="0.5" class="constellation-line"/>
  <line x1="820" y1="330" x2="760" y2="410" stroke="#D6DCE2" stroke-width="0.4" class="constellation-line"/>
  <line x1="890" y1="380" x2="640" y2="400" stroke="#D6DCE2" stroke-width="0.4" class="constellation-line"/>

  <!-- ==================== CLUSTER 5: Center ==================== -->
  <circle class="star1" cx="420" cy="220" r="1.7" fill="#FFFFFF" opacity="0.6"/>
  <circle class="star2" cx="540" cy="250" r="1.9" fill="#FFFFFF" opacity="0.8"/>
  <circle class="star3" cx="480" cy="330" r="1.5" fill="#FFFFFF" opacity="0.5"/>
  <circle class="star1" cx="600" cy="310" r="1.8" fill="#FFFFFF" opacity="0.7"/>
  <circle class="star2" cx="380" cy="340" r="1.4" fill="#FFFFFF" opacity="0.5"/>
  
  <line x1="420" y1="220" x2="540" y2="250" stroke="#D6DCE2" stroke-width="0.5" class="constellation-line"/>
  <line x1="420" y1="220" x2="480" y2="330" stroke="#D6DCE2" stroke-width="0.5" class="constellation-line"/>
  <line x1="540" y1="250" x2="600" y2="310" stroke="#D6DCE2" stroke-width="0.5" class="constellation-line"/>
  <line x1="480" y1="330" x2="380" y2="340" stroke="#D6DCE2" stroke-width="0.5" class="constellation-line"/>
  <line x1="540" y1="250" x2="380" y2="340" stroke="#D6DCE2" stroke-width="0.4" class="constellation-line"/>
  <line x1="480" y1="330" x2="600" y2="310" stroke="#D6DCE2" stroke-width="0.4" class="constellation-line"/>

  <!-- ==================== CLUSTER 6: Bottom Left ==================== -->
  <circle class="star1" cx="120" cy="620" r="1.8" fill="#FFFFFF" opacity="0.7"/>
  <circle class="star2" cx="240" cy="650" r="1.5" fill="#FFFFFF" opacity="0.5"/>
  <circle class="star3" cx="190" cy="730" r="2.0" fill="#FFFFFF" opacity="0.8"/>
  <circle class="star1" cx="310" cy="700" r="1.6" fill="#FFFFFF" opacity="0.6"/>
  <circle class="star2" cx="80" cy="760" r="1.4" fill="#FFFFFF" opacity="0.5"/>
  
  <line x1="120" y1="620" x2="240" y2="650" stroke="#D6DCE2" stroke-width="0.5" class="constellation-line"/>
  <line x1="120" y1="620" x2="190" y2="730" stroke="#D6DCE2" stroke-width="0.5" class="constellation-line"/>
  <line x1="240" y1="650" x2="310" y2="700" stroke="#D6DCE2" stroke-width="0.5" class="constellation-line"/>
  <line x1="190" y1="730" x2="80" y2="760" stroke="#D6DCE2" stroke-width="0.5" class="constellation-line"/>
  <line x1="240" y1="650" x2="190" y2="730" stroke="#D6DCE2" stroke-width="0.4" class="constellation-line"/>
  <line x1="310" y1="700" x2="80" y2="760" stroke="#D6DCE2" stroke-width="0.4" class="constellation-line"/>

  <!-- ==================== CLUSTER 7: Bottom Center ==================== -->
  <circle class="star1" cx="460" cy="600" r="1.7" fill="#FFFFFF" opacity="0.6"/>
  <circle class="star2" cx="580" cy="630" r="2.0" fill="#FFFFFF" opacity="0.8"/>
  <circle class="star3" cx="520" cy="710" r="1.5" fill="#FFFFFF" opacity="0.5"/>
  <circle class="star1" cx="640" cy="680" r="1.8" fill="#FFFFFF" opacity="0.7"/>
  <circle class="star2" cx="420" cy="700" r="1.4" fill="#FFFFFF" opacity="0.5"/>
  
  <line x1="460" y1="600" x2="580" y2="630" stroke="#D6DCE2" stroke-width="0.5" class="constellation-line"/>
  <line x1="460" y1="600" x2="520" y2="710" stroke="#D6DCE2" stroke-width="0.5" class="constellation-line"/>
  <line x1="580" y1="630" x2="640" y2="680" stroke="#D6DCE2" stroke-width="0.5" class="constellation-line"/>
  <line x1="520" y1="710" x2="420" y2="700" stroke="#D6DCE2" stroke-width="0.5" class="constellation-line"/>
  <line x1="580" y1="630" x2="520" y2="710" stroke="#D6DCE2" stroke-width="0.4" class="constellation-line"/>
  <line x1="640" y1="680" x2="420" y2="700" stroke="#D6DCE2" stroke-width="0.4" class="constellation-line"/>

  <!-- ==================== CLUSTER 8: Bottom Right ==================== -->
  <circle class="star1" cx="750" cy="610" r="1.6" fill="#FFFFFF" opacity="0.6"/>
  <circle class="star2" cx="870" cy="640" r="1.8" fill="#FFFFFF" opacity="0.7"/>
  <circle class="star3" cx="810" cy="720" r="1.5" fill="#FFFFFF" opacity="0.5"/>
  <circle class="star1" cx="940" cy="690" r="1.7" fill="#FFFFFF" opacity="0.6"/>
  
  <line x1="750" y1="610" x2="870" y2="640" stroke="#D6DCE2" stroke-width="0.5" class="constellation-line"/>
  <line x1="750" y1="610" x2="810" y2="720" stroke="#D6DCE2" stroke-width="0.5" class="constellation-line"/>
  <line x1="870" y1="640" x2="940" y2="690" stroke="#D6DCE2" stroke-width="0.5" class="constellation-line"/>
  <line x1="810" y1="720" x2="940" y2="690" stroke="#D6DCE2" stroke-width="0.5" class="constellation-line"/>
  <line x1="870" y1="640" x2="810" y2="720" stroke="#D6DCE2" stroke-width="0.4" class="constellation-line"/>

  <!-- ==================== SCATTERED SOLO STARS (not connected to anything) ==================== -->
  <circle class="star1" cx="380" cy="120" r="1.2" fill="#FFFFFF" opacity="0.4"/>
  <circle class="star2" cx="650" cy="180" r="1.0" fill="#FFFFFF" opacity="0.3"/>
  <circle class="star3" cx="310" cy="520" r="1.3" fill="#FFFFFF" opacity="0.5"/>
  <circle class="star1" cx="680" cy="520" r="1.1" fill="#FFFFFF" opacity="0.4"/>
  <circle class="star2" cx="500" cy="480" r="1.4" fill="#FFFFFF" opacity="0.5"/>
  <circle class="star3" cx="900" cy="250" r="1.0" fill="#FFFFFF" opacity="0.3"/>
  <circle class="star1" cx="350" cy="560" r="1.2" fill="#FFFFFF" opacity="0.4"/>
  <circle class="star2" cx="70" cy="550" r="1.1" fill="#FFFFFF" opacity="0.3"/>
  <circle class="star3" cx="720" cy="760" r="1.3" fill="#FFFFFF" opacity="0.5"/>
  <circle class="star1" cx="160" cy="280" r="1.0" fill="#FFFFFF" opacity="0.3"/>
  <circle class="star2" cx="960" cy="480" r="1.2" fill="#FFFFFF" opacity="0.4"/>
  <circle class="star3" cx="440" cy="780" r="1.1" fill="#FFFFFF" opacity="0.3"/>

  <!-- ==================== GLOWING NODES ==================== -->
  <circle cx="60" cy="40" r="3" fill="#FFFFFF" opacity="0.08"/>
  <circle cx="800" cy="45" r="3" fill="#FFFFFF" opacity="0.08"/>
  <circle cx="100" cy="350" r="3" fill="#FFFFFF" opacity="0.08"/>
  <circle cx="700" cy="300" r="3" fill="#FFFFFF" opacity="0.08"/>
  <circle cx="420" cy="220" r="3" fill="#FFFFFF" opacity="0.08"/>
  <circle cx="190" cy="730" r="3" fill="#FFFFFF" opacity="0.08"/>
  <circle cx="580" cy="630" r="3" fill="#FFFFFF" opacity="0.08"/>
  <circle cx="750" cy="610" r="3" fill="#FFFFFF" opacity="0.08"/>
</svg>